<?xml version="1.0" standalone="no"?>
<!DOCTYPE svg PUBLIC "-//W3C//DTD SVG 20010904//EN"
 "http://www.w3.org/TR/2001/REC-SVG-20010904/DTD/svg10.dtd">
<svg version="1.0" xmlns="http://www.w3.org/2000/svg"
 width="250.000000pt" height="250.000000pt" viewBox="0 0 250.000000 250.000000"
 preserveAspectRatio="xMidYMid meet">

<g transform="translate(0.000000,250.000000) scale(0.100000,-0.100000)"
fill="#000000" stroke="none">
<path d="M1050 2475 c-396 -62 -751 -330 -926 -699 -56 -118 -90 -238 -110
-389 -15 -106 -15 -137 -4 -242 14 -137 46 -267 90 -375 131 -318 415 -586
739 -697 534 -182 1126 8 1441 463 282 407 293 943 29 1371 -73 118 -254 301
-373 379 -262 169 -579 237 -886 189z m355 -16 c271 -33 502 -148 705 -349
202 -200 312 -410 354 -676 98 -621 -289 -1210 -899 -1369 -663 -172 -1325
218 -1501 885 -32 118 -43 342 -25 470 26 178 97 361 201 516 72 108 244 275
353 343 250 154 524 215 812 180z"/>
<path d="M1025 2420 c-234 -47 -429 -147 -595 -306 -246 -235 -373 -531 -373
-869 0 -326 120 -614 353 -845 167 -167 368 -274 610 -326 115 -25 343 -25
460 -1 558 116 943 558 967 1112 12 268 -52 503 -194 718 -108 164 -322 348
-494 426 -230 104 -502 138 -734 91z m486 -29 c281 -67 519 -224 694 -456 62
-83 150 -262 180 -367 106 -380 18 -788 -235 -1085 -338 -396 -925 -522 -1396
-299 -342 162 -577 461 -655 834 -18 82 -20 122 -16 262 5 203 31 311 111 476
178 363 500 596 911 658 76 11 322 -2 406 -23z"/>
<path d="M1140 2399 c-270 -27 -549 -162 -727 -353 -121 -129 -200 -259 -257
-423 -172 -497 14 -1046 452 -1337 200 -133 411 -196 660 -196 98 0 113 2 103
14 -10 12 -7 15 21 18 41 4 40 20 -2 31 -25 6 -31 13 -28 30 2 17 11 23 36 25
17 2 32 -1 32 -6 0 -5 -11 -7 -25 -4 -18 3 -25 0 -25 -12 0 -10 9 -16 24 -16
27 0 51 -24 41 -40 -4 -6 -17 -16 -29 -21 -40 -17 76 3 164 28 351 100 637
365 761 704 49 133 69 253 69 404 0 307 -104 571 -312 791 -247 261 -607 398
-958 363z m-5 -127 c-3 -3 -21 9 -39 27 l-34 33 -22 -42 c-12 -23 -24 -39 -27
-36 -17 17 -41 86 -32 92 12 7 11 8 28 -31 l13 -30 14 35 c20 47 20 47 54 15
l30 -29 0 30 c0 53 15 48 18 -6 2 -29 1 -55 -3 -58z m57 88 c17 -26 53 -25 72
2 9 12 18 19 21 16 7 -6 -46 -97 -57 -98 -7 0 -68 84 -68 94 0 14 21 4 32 -14z
m232 -1 c32 -25 33 -53 4 -73 -33 -23 -118 -20 -118 5 0 4 14 3 31 -3 42 -15
79 3 79 37 0 41 -77 63 -87 25 -7 -25 -23 -26 -23 -2 0 27 9 32 50 32 23 0 48
-8 64 -21z m125 -14 c2 -2 -2 -26 -8 -53 -12 -46 -14 -48 -42 -44 -16 2 -32 9
-36 15 -4 6 3 8 21 3 33 -8 36 16 4 33 -22 11 -22 11 5 8 15 -3 27 -3 27 -1 0
1 3 9 6 18 4 11 0 16 -12 16 -11 0 -26 5 -34 11 -11 8 -5 9 25 4 22 -4 42 -8
44 -10z m-591 -57 c13 -52 -2 -76 -16 -27 -5 19 -13 42 -17 52 -5 12 -2 17 8
17 9 0 19 -16 25 -42z m638 7 l-7 -35 37 22 c38 22 53 16 54 -24 0 -28 16 -29
30 -3 12 23 30 34 30 19 0 -10 -55 -84 -62 -84 -5 0 -8 9 -8 19 0 11 -4 31
-10 46 l-10 26 -37 -26 c-32 -22 -39 -23 -41 -9 -6 26 8 84 20 84 6 0 8 -13 4
-35z m-790 -55 c14 -35 19 -39 43 -34 19 3 14 -2 -19 -20 -49 -28 -76 -34 -46
-11 19 14 19 16 3 51 -15 31 -16 54 -1 54 2 0 11 -18 20 -40z m657 -11 c315
-66 606 -306 727 -596 59 -142 73 -213 74 -383 0 -131 -3 -169 -23 -245 -104
-404 -428 -701 -841 -770 -200 -34 -394 -4 -585 89 -210 103 -368 261 -470
471 -84 171 -100 244 -100 455 0 202 14 267 90 427 54 115 90 167 178 260 90
94 170 154 280 209 210 106 433 134 670 83z m-730 -34 l25 -44 -31 -20 c-36
-23 -52 -18 -18 5 29 21 13 41 -18 25 -12 -7 -21 -8 -21 -2 0 5 9 13 20 16 22
7 24 13 12 32 -6 10 -12 10 -28 -2 -22 -16 -34 -19 -34 -7 0 6 40 31 67 41 1
1 13 -19 26 -44z m1131 -32 l18 -57 24 29 c13 16 26 26 30 23 3 -4 -9 -25 -27
-48 l-33 -41 -21 62 -21 63 -19 -32 c-17 -28 -35 -42 -35 -27 0 10 53 85 60
85 3 0 14 -26 24 -57z m-1220 -23 c14 -22 26 -42 26 -45 0 -3 -27 -5 -61 -5
l-60 0 21 -30 c31 -44 9 -37 -28 10 l-32 39 66 3 66 3 -21 27 c-23 28 -26 38
-12 38 4 0 20 -18 35 -40z m1315 -61 c-28 -35 -49 -49 -49 -33 0 15 63 84 71
78 5 -3 -4 -23 -22 -45z m71 -2 c0 -7 -5 -18 -12 -25 -9 -9 -7 -17 10 -35 32
-34 27 -45 -6 -13 -25 23 -30 25 -42 11 -7 -8 -16 -12 -21 -9 -9 5 50 83 64
84 4 0 7 -6 7 -13z m-1555 -21 c-25 -21 -27 -25 -13 -31 9 -4 26 -1 38 5 18
10 25 9 37 -2 12 -12 11 -18 -7 -41 -22 -27 -40 -35 -40 -17 0 6 6 10 14 10
15 0 29 27 18 34 -5 3 -14 1 -22 -5 -28 -17 -60 -11 -60 13 0 26 27 58 49 58
11 0 6 -8 -14 -24z m1629 -55 c7 -10 -73 -76 -81 -67 -7 7 56 76 68 76 4 0 10
-4 13 -9z m-1657 -33 l32 -31 -21 -29 c-11 -16 -23 -27 -26 -24 -3 3 3 15 13
26 16 18 16 20 1 26 -11 4 -22 -1 -31 -12 -18 -23 -20 -11 -2 16 17 29 -11 47
-31 19 -7 -10 -18 -19 -24 -19 -7 0 1 14 17 30 16 17 31 30 34 30 3 0 20 -14
38 -32z m1713 -33 c17 -18 21 -28 13 -36 -7 -7 -12 -3 -17 15 -3 14 -14 26
-22 26 -13 0 -15 -7 -10 -35 6 -28 3 -37 -10 -42 -21 -8 -48 9 -52 33 -3 16
-1 15 13 -4 21 -29 40 -16 27 19 -19 52 18 67 58 24z m-1780 -46 c53 -43 40
-57 -16 -18 -24 16 -42 34 -39 40 9 13 12 12 55 -22z m1920 -188 c0 -12 -90
-44 -98 -36 -4 4 -2 9 3 11 6 2 26 12 45 22 34 18 50 19 50 3z m-2086 -17
c-22 -33 -5 -53 21 -24 21 24 50 26 59 5 7 -18 -14 -66 -25 -59 -5 3 -3 14 3
24 19 29 1 36 -27 10 -28 -26 -55 -21 -55 10 0 26 17 60 31 60 5 0 2 -11 -7
-26z m2114 -61 c10 -31 10 -32 -36 -47 -51 -18 -58 -15 -67 29 -5 28 -5 28 6
8 17 -33 43 -30 35 3 -5 17 -3 23 4 19 5 -3 10 -13 10 -21 0 -16 2 -16 24 -8
11 4 13 11 5 31 -5 13 -9 27 -9 31 0 14 18 -15 28 -45z m-2083 -43 c30 -11 26
-31 -4 -23 -16 4 -22 -2 -29 -28 -10 -38 -7 -49 14 -49 8 0 14 -5 14 -11 0
-10 -73 -4 -92 8 -18 10 -6 25 15 19 21 -5 25 0 35 31 12 38 5 52 -26 53 -7 0
-10 5 -6 11 6 11 31 7 79 -11z m2113 -53 c7 -15 10 -33 5 -40 -5 -8 -9 -2 -13
17 -7 42 -26 43 -34 2 -8 -42 -30 -53 -51 -23 -17 25 -20 47 -5 47 6 0 10 -9
10 -19 0 -32 19 -34 26 -4 3 15 8 34 10 41 6 22 38 9 52 -21z m-7 -132 c-17
-30 -31 -57 -31 -59 0 -3 16 -2 35 1 23 4 35 2 35 -6 0 -7 -19 -11 -50 -11
-27 0 -50 2 -50 4 0 2 11 24 25 47 14 24 25 47 25 51 0 4 -17 4 -37 1 -27 -4
-35 -2 -28 5 9 10 39 16 88 21 17 1 15 -6 -12 -54z m-2133 30 c6 -3 12 -9 12
-15 0 -7 -13 -9 -37 -5 -60 10 -74 16 -67 26 5 8 55 5 92 -6z m1 -61 c2 -2
-13 -23 -34 -46 l-39 -42 35 -10 34 -11 -49 -3 c-26 -2 -50 -1 -53 2 -3 3 13
28 37 56 l42 50 -36 0 c-20 0 -36 5 -36 11 0 8 15 9 48 4 26 -4 49 -9 51 -11z
m2097 -124 c8 0 14 9 14 20 0 11 5 20 10 20 6 0 10 -11 10 -25 0 -38 28 -32
33 8 3 28 4 26 5 -10 l2 -43 -50 0 -50 0 1 43 c2 29 3 34 6 15 2 -16 11 -28
19 -28z m30 -90 c33 0 44 -4 44 -16 0 -12 -8 -14 -45 -8 -41 6 -46 4 -55 -17
-9 -20 -10 -18 -5 16 2 22 6 49 6 60 1 13 3 10 6 -7 4 -26 8 -28 49 -28z
m-2153 -9 l28 -6 -30 -29 c-17 -17 -31 -33 -31 -38 0 -4 19 -17 41 -29 l42
-21 -43 -19 c-48 -22 -60 -23 -60 -8 0 5 14 15 32 21 l31 11 -36 19 c-21 10
-37 21 -37 25 0 4 12 20 27 35 l27 28 -37 0 c-20 0 -37 5 -37 10 0 11 38 11
83 1z m2130 -147 c23 -4 37 -12 37 -21 0 -11 -6 -14 -22 -9 -13 4 -35 9 -50
12 -16 4 -28 10 -28 15 0 11 12 11 63 3z m-2064 -51 c12 -43 6 -57 -8 -19 -13
33 -35 35 -29 1 6 -30 -7 -34 -15 -4 -9 34 -32 16 -30 -22 l2 -34 -14 30 c-22
46 -19 53 33 68 26 8 48 15 49 16 1 1 7 -16 12 -36z m2069 -9 c12 -2 22 -9 22
-15 0 -7 -12 -9 -35 -5 -40 8 -43 1 -15 -34 27 -34 25 -38 -15 -46 -41 -7 -44
-16 -10 -34 13 -7 22 -17 19 -21 -5 -9 -84 39 -84 51 0 4 16 11 35 14 45 9 51
20 26 55 -35 49 -29 53 57 35z m-2064 -65 c24 -11 65 -84 53 -95 -3 -4 -9 5
-12 19 -13 52 -65 73 -88 36 -7 -12 -7 -26 2 -48 11 -25 17 -30 37 -25 27 7
33 -10 8 -20 -26 -10 -33 -7 -49 24 -21 40 -20 96 3 109 21 13 17 13 46 0z
m2014 -121 c-3 -7 -15 -14 -27 -16 -28 -4 -50 -47 -33 -64 14 -14 16 -28 4
-28 -6 0 -28 37 -60 102 -2 4 16 9 40 11 24 2 51 4 61 5 11 1 17 -3 15 -10z
m-1911 -51 c5 -6 -45 -107 -53 -107 -4 0 -4 14 0 31 8 40 -8 69 -39 69 -14 0
-25 5 -25 11 0 8 17 10 56 6 31 -3 58 -8 61 -10z m1749 -56 c-36 -38 -34 -85
5 -89 16 -2 32 5 44 18 16 18 17 24 6 42 -15 23 -10 31 13 22 33 -13 5 -73
-46 -100 -27 -14 -32 -14 -49 2 -10 9 -19 30 -19 45 0 28 43 89 63 89 6 0 -2
-13 -17 -29z m-1696 -34 c0 -6 -4 -27 -9 -45 l-10 -32 51 0 50 0 -28 -37 c-15
-21 -29 -40 -31 -42 -2 -3 -8 0 -13 5 -7 7 -4 16 10 29 29 26 25 31 -20 27
-44 -4 -49 4 -30 52 11 29 8 31 -21 15 -11 -6 -25 -8 -32 -6 -7 2 6 13 28 25
47 25 55 26 55 9z m1605 -77 c-13 -14 -15 -24 -8 -31 7 -7 14 -5 23 6 7 8 17
15 23 15 5 0 2 -9 -8 -20 -14 -16 -16 -23 -7 -32 9 -9 18 -6 37 12 34 32 32
13 -2 -22 l-27 -28 -33 32 c-18 18 -33 36 -33 42 0 13 31 46 43 46 6 0 2 -9
-8 -20z m-1485 -48 c0 -14 -66 -73 -73 -65 -4 4 7 22 25 40 31 32 48 41 48 25z
m1460 -41 c39 -33 36 -52 -4 -26 l-26 17 0 -41 c0 -44 -4 -47 -46 -31 -33 13
-39 8 -24 -20 6 -11 9 -26 7 -33 -2 -7 -14 10 -25 37 -12 27 -21 51 -19 52 2
2 19 -1 38 -6 49 -14 49 -14 49 35 0 25 3 45 8 45 4 0 23 -14 42 -29z m-1340
-51 c19 -16 30 -30 23 -30 -6 0 -15 5 -19 11 -3 6 -17 -4 -32 -25 -24 -34 -42
-46 -42 -27 0 4 10 21 22 36 17 22 19 31 10 46 -17 27 -2 23 38 -11z m85 -52
c14 -6 25 -15 25 -20 0 -5 -9 -4 -20 2 -20 11 -40 6 -40 -9 0 -4 10 -13 23
-20 21 -11 21 -11 -5 -6 -37 7 -46 -14 -17 -36 13 -10 20 -19 16 -19 -13 0
-68 34 -64 40 1 3 11 22 22 43 21 41 23 42 60 25z m1045 -49 c12 -23 20 -43
17 -45 -2 -2 -28 0 -57 6 -29 6 -55 8 -57 6 -3 -2 0 -13 6 -24 13 -24 14 -42
3 -42 -8 0 -45 90 -39 96 1 2 20 -1 42 -6 22 -5 48 -10 58 -10 16 0 16 2 2 30
-9 17 -11 30 -5 30 5 0 19 -18 30 -41z m-909 -61 c6 17 15 32 21 32 5 0 8 -3
6 -7 -2 -5 -10 -25 -18 -45 -8 -21 -17 -38 -21 -38 -4 0 -21 24 -38 53 l-30
52 -13 -32 c-7 -18 -16 -33 -20 -33 -13 0 -9 17 14 61 l21 41 33 -58 33 -59
12 33z m763 -1 c19 -50 20 -57 6 -57 -11 0 -24 29 -36 75 -10 42 12 28 30 -18z
m-639 1 c7 -7 -1 -8 -22 -3 -40 8 -43 -6 -6 -33 17 -13 24 -25 20 -36 -8 -21
-57 -21 -83 0 -19 15 -19 16 1 9 46 -16 55 -17 55 -4 0 8 -9 20 -20 27 -22 14
-27 48 -7 55 15 6 49 -2 62 -15z m585 -23 c7 -25 9 -49 5 -53 -4 -4 -9 -2 -12
3 -12 32 -21 36 -54 27 -29 -7 -34 -13 -31 -35 3 -30 -14 -37 -22 -9 -20 73
-17 101 9 66 8 -12 20 -15 43 -9 25 5 32 12 32 31 0 39 16 28 30 -21z m-484 4
c4 -7 -3 -10 -22 -7 -37 4 -41 -15 -7 -29 l28 -11 -32 -1 c-43 -1 -43 -25 0
-39 l32 -12 -40 6 c-22 3 -42 7 -44 9 -2 2 0 25 3 50 7 43 9 45 41 45 19 0 37
-5 41 -11z m45 -54 c-7 -56 -27 -56 -22 0 3 44 9 58 20 51 4 -3 5 -25 2 -51z"/>
<path d="M1215 2320 c3 -5 10 -10 16 -10 5 0 9 5 9 10 0 6 -7 10 -16 10 -8 0
-12 -4 -9 -10z"/>
<path d="M1070 2224 c-200 -37 -372 -127 -520 -274 -142 -140 -225 -285 -272
-477 -31 -125 -30 -333 0 -452 100 -384 365 -655 745 -759 90 -24 356 -23 452
2 364 95 633 353 742 711 25 83 27 104 27 265 1 205 -13 269 -94 435 -126 258
-372 458 -655 531 -129 33 -303 40 -425 18z m375 -28 c363 -78 643 -336 752
-693 24 -80 27 -104 27 -253 1 -142 -2 -177 -22 -250 -102 -375 -412 -659
-789 -725 -306 -53 -601 37 -825 253 -149 144 -242 303 -290 499 -31 129 -29
323 5 453 97 374 397 656 762 719 33 6 71 13 85 15 46 8 224 -3 295 -18z"/>
<path d="M1096 2179 c-125 -18 -266 -74 -381 -152 -157 -106 -309 -302 -359
-464 l-7 -23 343 0 344 0 34 103 c18 56 66 202 106 325 l72 222 -47 -1 c-25
-1 -73 -5 -105 -10z m-146 -194 c80 -41 64 -159 -30 -223 -28 -19 -45 -23 -81
-19 l-46 4 8 -36 c7 -31 5 -39 -16 -60 -13 -14 -27 -23 -29 -20 -3 2 -10 36
-16 74 -13 80 -24 97 -59 93 -21 -2 -27 -9 -31 -38 l-5 -35 -17 25 c-10 13
-18 30 -18 36 0 21 35 43 73 46 35 3 40 7 52 41 16 48 30 64 84 99 50 31 88
35 131 13z"/>
<path d="M807 1930 c-28 -22 -43 -74 -32 -109 7 -24 53 -51 87 -51 30 0 67 26
77 54 11 29 -6 71 -41 101 -36 30 -57 31 -91 5z"/>
<path d="M1260 2184 c0 -5 46 -151 103 -324 l103 -315 342 -3 c274 -2 342 0
342 11 0 22 -67 153 -111 219 -55 81 -167 193 -248 247 -131 89 -305 151 -463
167 -38 4 -68 3 -68 -2z m466 -228 c19 -19 34 -43 34 -54 0 -15 5 -19 19 -15
49 13 120 -70 106 -124 -9 -38 -57 -81 -99 -88 -33 -7 -35 -9 -19 -21 10 -7
33 -14 51 -14 39 0 34 -16 -7 -25 -18 -4 -40 -1 -58 9 -37 19 -283 224 -283
236 0 20 24 21 51 1 l29 -22 0 46 c0 100 105 142 176 71z"/>
<path d="M1633 1918 c-34 -37 -53 -69 -53 -92 0 -8 30 -40 68 -71 78 -65 98
-66 150 -8 24 28 32 45 30 67 -6 63 -73 61 -100 -4 -13 -32 -22 -40 -43 -40
-45 0 -43 29 3 70 46 39 53 67 24 93 -27 25 -44 21 -79 -15z"/>
<path d="M1248 2095 c-11 -20 -179 -547 -175 -551 2 -3 85 -3 184 -2 l179 3
-91 280 c-50 154 -93 276 -97 270z"/>
<path d="M323 1453 c-23 -99 -24 -307 -1 -408 67 -296 275 -554 545 -677 226
-102 507 -105 745 -7 76 31 188 96 188 108 0 15 -542 402 -555 397 -7 -2 -131
-91 -275 -195 -235 -171 -291 -208 -277 -184 15 27 207 635 202 643 -6 10
-541 400 -549 400 -2 0 -13 -35 -23 -77z m325 -266 c31 -33 70 -124 80 -190 9
-60 6 -72 -18 -57 -9 6 -13 24 -11 57 2 54 -17 109 -48 137 -40 36 -48 6 -37
-135 9 -104 0 -139 -33 -139 -48 0 -107 85 -136 197 -22 82 -20 113 6 113 19
0 20 -4 14 -40 -13 -76 40 -200 86 -200 24 0 28 35 17 138 -12 103 -2 142 35
142 13 0 33 -10 45 -23z m532 -612 c36 -52 67 -95 70 -95 3 0 36 43 74 96 37
52 70 93 72 91 3 -3 12 -49 20 -103 8 -55 17 -111 20 -126 5 -25 3 -28 -20
-28 -22 0 -25 5 -31 48 -3 26 -9 67 -13 91 l-7 44 -59 -87 c-33 -47 -62 -86
-65 -86 -4 0 -30 36 -60 80 -29 44 -57 78 -61 75 -5 -3 -11 -39 -15 -81 -5
-51 -12 -77 -22 -81 -7 -3 -16 -3 -19 -1 -6 6 39 258 46 258 3 0 34 -43 70
-95z"/>
<path d="M1889 1339 c-145 -105 -270 -197 -277 -204 -10 -9 -10 -18 -3 -36 6
-13 54 -158 106 -321 53 -164 101 -298 107 -298 5 0 49 39 97 88 186 186 282
413 283 672 0 98 -24 264 -41 283 -4 4 -127 -79 -272 -184z m31 -93 c0 -7 -11
-43 -25 -79 l-24 -66 54 -20 c30 -11 76 -26 101 -32 42 -11 45 -14 39 -38 -4
-14 -10 -29 -14 -34 -4 -4 -50 8 -102 27 l-94 34 -25 -74 c-14 -41 -29 -73
-35 -71 -5 1 -9 4 -9 7 40 131 119 360 125 360 5 0 9 -6 9 -14z"/>
<path d="M470 1478 c191 -141 436 -318 440 -317 3 0 30 78 61 174 l57 175
-301 0 -301 0 44 -32z"/>
<path d="M998 1331 c-32 -98 -58 -182 -58 -187 0 -5 71 -60 156 -122 l156
-113 158 116 159 115 -13 38 c-7 20 -34 103 -60 185 l-47 147 -197 0 -197 0
-57 -179z m342 43 c0 -3 -16 -20 -35 -38 -37 -35 -47 -76 -19 -76 23 0 72 37
79 60 13 43 25 5 25 -81 0 -84 -11 -114 -25 -68 -8 23 -61 59 -87 59 -27 0 -3
-55 40 -90 l37 -30 -98 0 c-98 0 -117 7 -72 28 26 12 64 77 52 89 -12 12 -77
-26 -89 -52 -20 -45 -28 -26 -28 70 l0 96 38 -41 c38 -39 82 -54 82 -27 0 22
-38 75 -59 82 -46 14 -16 25 69 25 50 0 90 -3 90 -6z"/>
<path d="M1480 1504 c0 -3 25 -82 56 -176 l56 -169 24 16 c34 22 437 315 448
326 6 5 -114 9 -287 9 -163 0 -297 -3 -297 -6z"/>
<path d="M886 987 c-22 -67 -63 -195 -92 -284 l-52 -163 57 41 c247 177 421
305 421 311 0 5 -286 218 -293 218 -1 0 -20 -55 -41 -123z"/>
<path d="M1427 1003 c-139 -101 -146 -108 -130 -124 26 -24 463 -339 463 -334
0 7 -180 558 -183 561 -2 2 -69 -45 -150 -103z"/>
<path d="M2190 720 c0 -5 5 -10 10 -10 6 0 10 5 10 10 0 6 -4 10 -10 10 -5 0
-10 -4 -10 -10z"/>
<path d="M320 680 c0 -5 5 -10 10 -10 6 0 10 5 10 10 0 6 -4 10 -10 10 -5 0
-10 -4 -10 -10z"/>
</g>
</svg>
